{
	"asset":{
		"generator":"Khronos glTF Blender I/O v5.2.40",
		"version":"2.0"
	},
	"scene":0,
	"scenes":[
		{
			"name":"Scene",
			"nodes":[
				0
			]
		}
	],
	"nodes":[
		{
			"mesh":0,
			"name":"bauzaun"
		}
	],
	"materials":[
		{
			"doubleSided":true,
			"name":"galvanized",
			"pbrMetallicRoughness":{
				"baseColorFactor":[
					0.3967552185058594,
					0.43415364623069763,
					0.4507857859134674,
					1
				],
				"metallicFactor":0.800000011920929,
				"roughnessFactor":0.44999998807907104
			}
		},
		{
			"doubleSided":true,
			"name":"fence_foot",
			"pbrMetallicRoughness":{
				"baseColorFactor":[
					0.2622506618499756,
					0.2622506618499756,
					0.2462013214826584,
					1
				],
				"metallicFactor":0,
				"roughnessFactor":0.8999999761581421
			}
		}
	],
	"meshes":[
		{
			"name":"bauzaun",
			"primitives":[
				{
					"attributes":{
						"POSITION":0,
						"NORMAL":1,
						"TEXCOORD_0":2
					},
					"indices":3,
					"material":0
				},
				{
					"attributes":{
						"POSITION":4,
						"NORMAL":5,
						"TEXCOORD_0":6
					},
					"indices":7,
					"material":1
				}
			]
		}
	],
	"accessors":[
		{
			"bufferView":0,
			"componentType":5126,
			"count":1296,
			"max":[
				1.750999927520752,
				2.000999927520752,
				0.020999999716877937
			],
			"min":[
				-1.7510000467300415,
				0.04999995231628418,
				-0.020999999716877937
			],
			"type":"VEC3"
		},
		{
			"bufferView":1,
			"componentType":5126,
			"count":1296,
			"type":"VEC3"
		},
		{
			"bufferView":2,
			"componentType":5126,
			"count":1296,
			"type":"VEC2"
		},
		{
			"bufferView":3,
			"componentType":5123,
			"count":2040,
			"type":"SCALAR"
		},
		{
			"bufferView":4,
			"componentType":5126,
			"count":432,
			"max":[
				1.8400001525878906,
				0.12999999523162842,
				0.3100000023841858
			],
			"min":[
				-1.840000033378601,
				0,
				-0.3100000023841858
			],
			"type":"VEC3"
		},
		{
			"bufferView":5,
			"componentType":5126,
			"count":432,
			"type":"VEC3"
		},
		{
			"bufferView":6,
			"componentType":5126,
			"count":432,
			"type":"VEC2"
		},
		{
			"bufferView":7,
			"componentType":5123,
			"count":648,
			"type":"SCALAR"
		}
	],
	"bufferViews":[
		{
			"buffer":0,
			"byteLength":15552,
			"byteOffset":0,
			"target":34962
		},
		{
			"buffer":0,
			"byteLength":15552,
			"byteOffset":15552,
			"target":34962
		},
		{
			"buffer":0,
			"byteLength":10368,
			"byteOffset":31104,
			"target":34962
		},
		{
			"buffer":0,
			"byteLength":4080,
			"byteOffset":41472,
			"target":34963
		},
		{
			"buffer":0,
			"byteLength":5184,
			"byteOffset":45552,
			"target":34962
		},
		{
			"buffer":0,
			"byteLength":5184,
			"byteOffset":50736,
			"target":34962
		},
		{
			"buffer":0,
			"byteLength":3456,
			"byteOffset":55920,
			"target":34962
		},
		{
			"buffer":0,
			"byteLength":1296,
			"byteOffset":59376,
			"target":34963
		}
	],
	"buffers":[
		{
			"byteLength":60672,
			"uri":"data:application/octet-stream;base64,"
		}
	]
}
