{
	"asset":{
		"generator":"Khronos glTF Blender I/O v5.2.40",
		"version":"2.0"
	},
	"scene":0,
	"scenes":[
		{
			"name":"Scene",
			"nodes":[
				0,
				1
			]
		}
	],
	"nodes":[
		{
			"mesh":0,
			"name":"ArmL"
		},
		{
			"mesh":1,
			"name":"ArmR"
		}
	],
	"materials":[
		{
			"doubleSided":true,
			"name":"hivis_orange",
			"pbrMetallicRoughness":{
				"baseColorFactor":[
					0.8549926280975342,
					0.1441284716129303,
					0.013702083379030228,
					1
				],
				"metallicFactor":0,
				"roughnessFactor":0.75
			}
		},
		{
			"doubleSided":true,
			"name":"reflective",
			"pbrMetallicRoughness":{
				"baseColorFactor":[
					0.7011018991470337,
					0.7379103899002075,
					0.7605245113372803,
					1
				],
				"metallicFactor":0.30000001192092896,
				"roughnessFactor":0.25
			}
		},
		{
			"doubleSided":true,
			"name":"glove_knit",
			"pbrMetallicRoughness":{
				"baseColorFactor":[
					0.11443537473678589,
					0.13286831974983215,
					0.14995978772640228,
					1
				],
				"metallicFactor":0,
				"roughnessFactor":0.949999988079071
			}
		},
		{
			"doubleSided":true,
			"name":"glove_coating",
			"pbrMetallicRoughness":{
				"baseColorFactor":[
					0.7681511640548706,
					0.3762621283531189,
					0.023153366521000862,
					1
				],
				"metallicFactor":0,
				"roughnessFactor":0.5
			}
		}
	],
	"meshes":[
		{
			"name":"ArmL",
			"primitives":[
				{
					"attributes":{
						"POSITION":0,
						"NORMAL":1,
						"TEXCOORD_0":2
					},
					"indices":3,
					"material":0
				},
				{
					"attributes":{
						"POSITION":4,
						"NORMAL":5,
						"TEXCOORD_0":6
					},
					"indices":3,
					"material":1
				},
				{
					"attributes":{
						"POSITION":7,
						"NORMAL":8,
						"TEXCOORD_0":9
					},
					"indices":10,
					"material":2
				},
				{
					"attributes":{
						"POSITION":11,
						"NORMAL":12,
						"TEXCOORD_0":13
					},
					"indices":14,
					"material":3
				}
			]
		},
		{
			"name":"ArmR",
			"primitives":[
				{
					"attributes":{
						"POSITION":15,
						"NORMAL":16,
						"TEXCOORD_0":17
					},
					"indices":3,
					"material":0
				},
				{
					"attributes":{
						"POSITION":18,
						"NORMAL":19,
						"TEXCOORD_0":20
					},
					"indices":3,
					"material":1
				},
				{
					"attributes":{
						"POSITION":21,
						"NORMAL":22,
						"TEXCOORD_0":23
					},
					"indices":10,
					"material":2
				},
				{
					"attributes":{
						"POSITION":24,
						"NORMAL":25,
						"TEXCOORD_0":26
					},
					"indices":27,
					"material":3
				}
			]
		}
	],
	"accessors":[
		{
			"bufferView":0,
			"componentType":5126,
			"count":114,
			"max":[
				0.06200001388788223,
				0.062000028789043427,
				0.1600000262260437
			],
			"min":[
				-0.06200001388788223,
				-0.061999984085559845,
				-0.18000002205371857
			],
			"type":"VEC3"
		},
		{
			"bufferView":1,
			"componentType":5126,
			"count":114,
			"type":"VEC3"
		},
		{
			"bufferView":2,
			"componentType":5126,
			"count":114,
			"type":"VEC2"
		},
		{
			"bufferView":3,
			"componentType":5123,
			"count":324,
			"type":"SCALAR"
		},
		{
			"bufferView":4,
			"componentType":5126,
			"count":114,
			"max":[
				0.06050001457333565,
				0.06050001084804535,
				-0.019999990239739418
			],
			"min":[
				-0.06050001457333565,
				-0.06050000339746475,
				-0.05500001087784767
			],
			"type":"VEC3"
		},
		{
			"bufferView":5,
			"componentType":5126,
			"count":114,
			"type":"VEC3"
		},
		{
			"bufferView":6,
			"componentType":5126,
			"count":114,
			"type":"VEC2"
		},
		{
			"bufferView":7,
			"componentType":5126,
			"count":98,
			"max":[
				0.04300001263618469,
				0.043000008910894394,
				-0.16999998688697815
			],
			"min":[
				-0.04300001263618469,
				-0.0430000014603138,
				-0.24500001966953278
			],
			"type":"VEC3"
		},
		{
			"bufferView":8,
			"componentType":5126,
			"count":98,
			"type":"VEC3"
		},
		{
			"bufferView":9,
			"componentType":5126,
			"count":98,
			"type":"VEC2"
		},
		{
			"bufferView":10,
			"componentType":5123,
			"count":276,
			"type":"SCALAR"
		},
		{
			"bufferView":11,
			"componentType":5126,
			"count":1496,
			"max":[
				0.07699999213218689,
				0.01600000075995922,
				-0.2500000298023224
			],
			"min":[
				-0.07579999417066574,
				-0.06780000030994415,
				-0.3500000238418579
			],
			"type":"VEC3"
		},
		{
			"bufferView":12,
			"componentType":5126,
			"count":1496,
			"type":"VEC3"
		},
		{
			"bufferView":13,
			"componentType":5126,
			"count":1496,
			"type":"VEC2"
		},
		{
			"bufferView":14,
			"componentType":5123,
			"count":6024,
			"type":"SCALAR"
		},
		{
			"bufferView":15,
			"componentType":5126,
			"count":114,
			"max":[
				0.06200001388788223,
				0.062000028789043427,
				0.1600000262260437
			],
			"min":[
				-0.06200001388788223,
				-0.061999984085559845,
				-0.18000002205371857
			],
			"type":"VEC3"
		},
		{
			"bufferView":16,
			"componentType":5126,
			"count":114,
			"type":"VEC3"
		},
		{
			"bufferView":17,
			"componentType":5126,
			"count":114,
			"type":"VEC2"
		},
		{
			"bufferView":18,
			"componentType":5126,
			"count":114,
			"max":[
				0.06050001457333565,
				0.06050001084804535,
				-0.019999990239739418
			],
			"min":[
				-0.06050001457333565,
				-0.06050000339746475,
				-0.05500001087784767
			],
			"type":"VEC3"
		},
		{
			"bufferView":19,
			"componentType":5126,
			"count":114,
			"type":"VEC3"
		},
		{
			"bufferView":20,
			"componentType":5126,
			"count":114,
			"type":"VEC2"
		},
		{
			"bufferView":21,
			"componentType":5126,
			"count":98,
			"max":[
				0.04300001263618469,
				0.043000008910894394,
				-0.16999998688697815
			],
			"min":[
				-0.04300001263618469,
				-0.0430000014603138,
				-0.24500001966953278
			],
			"type":"VEC3"
		},
		{
			"bufferView":22,
			"componentType":5126,
			"count":98,
			"type":"VEC3"
		},
		{
			"bufferView":23,
			"componentType":5126,
			"count":98,
			"type":"VEC2"
		},
		{
			"bufferView":24,
			"componentType":5126,
			"count":1592,
			"max":[
				0.04100000485777855,
				0.041999995708465576,
				-0.2434999942779541
			],
			"min":[
				-0.04149999842047691,
				-0.035945482552051544,
				-0.33649998903274536
			],
			"type":"VEC3"
		},
		{
			"bufferView":25,
			"componentType":5126,
			"count":1592,
			"type":"VEC3"
		},
		{
			"bufferView":26,
			"componentType":5126,
			"count":1592,
			"type":"VEC2"
		},
		{
			"bufferView":27,
			"componentType":5123,
			"count":4920,
			"type":"SCALAR"
		}
	],
	"bufferViews":[
		{
			"buffer":0,
			"byteLength":1368,
			"byteOffset":0,
			"target":34962
		},
		{
			"buffer":0,
			"byteLength":1368,
			"byteOffset":1368,
			"target":34962
		},
		{
			"buffer":0,
			"byteLength":912,
			"byteOffset":2736,
			"target":34962
		},
		{
			"buffer":0,
			"byteLength":648,
			"byteOffset":3648,
			"target":34963
		},
		{
			"buffer":0,
			"byteLength":1368,
			"byteOffset":4296,
			"target":34962
		},
		{
			"buffer":0,
			"byteLength":1368,
			"byteOffset":5664,
			"target":34962
		},
		{
			"buffer":0,
			"byteLength":912,
			"byteOffset":7032,
			"target":34962
		},
		{
			"buffer":0,
			"byteLength":1176,
			"byteOffset":7944,
			"target":34962
		},
		{
			"buffer":0,
			"byteLength":1176,
			"byteOffset":9120,
			"target":34962
		},
		{
			"buffer":0,
			"byteLength":784,
			"byteOffset":10296,
			"target":34962
		},
		{
			"buffer":0,
			"byteLength":552,
			"byteOffset":11080,
			"target":34963
		},
		{
			"buffer":0,
			"byteLength":17952,
			"byteOffset":11632,
			"target":34962
		},
		{
			"buffer":0,
			"byteLength":17952,
			"byteOffset":29584,
			"target":34962
		},
		{
			"buffer":0,
			"byteLength":11968,
			"byteOffset":47536,
			"target":34962
		},
		{
			"buffer":0,
			"byteLength":12048,
			"byteOffset":59504,
			"target":34963
		},
		{
			"buffer":0,
			"byteLength":1368,
			"byteOffset":71552,
			"target":34962
		},
		{
			"buffer":0,
			"byteLength":1368,
			"byteOffset":72920,
			"target":34962
		},
		{
			"buffer":0,
			"byteLength":912,
			"byteOffset":74288,
			"target":34962
		},
		{
			"buffer":0,
			"byteLength":1368,
			"byteOffset":75200,
			"target":34962
		},
		{
			"buffer":0,
			"byteLength":1368,
			"byteOffset":76568,
			"target":34962
		},
		{
			"buffer":0,
			"byteLength":912,
			"byteOffset":77936,
			"target":34962
		},
		{
			"buffer":0,
			"byteLength":1176,
			"byteOffset":78848,
			"target":34962
		},
		{
			"buffer":0,
			"byteLength":1176,
			"byteOffset":80024,
			"target":34962
		},
		{
			"buffer":0,
			"byteLength":784,
			"byteOffset":81200,
			"target":34962
		},
		{
			"buffer":0,
			"byteLength":19104,
			"byteOffset":81984,
			"target":34962
		},
		{
			"buffer":0,
			"byteLength":19104,
			"byteOffset":101088,
			"target":34962
		},
		{
			"buffer":0,
			"byteLength":12736,
			"byteOffset":120192,
			"target":34962
		},
		{
			"buffer":0,
			"byteLength":9840,
			"byteOffset":132928,
			"target":34963
		}
	],
	"buffers":[
		{
			"byteLength":142768,
			"uri":"data:application/octet-stream;base64,"
		}
	]
}
