{
	"asset":{
		"generator":"Khronos glTF Blender I/O v5.2.40",
		"version":"2.0"
	},
	"scene":0,
	"scenes":[
		{
			"name":"Scene",
			"nodes":[
				0
			]
		}
	],
	"nodes":[
		{
			"mesh":0,
			"name":"lintel_stack"
		}
	],
	"materials":[
		{
			"doubleSided":true,
			"name":"bearer_wood",
			"pbrMetallicRoughness":{
				"baseColorTexture":{
					"index":0
				},
				"metallicFactor":0,
				"roughnessFactor":0.8500000238418579
			}
		},
		{
			"doubleSided":true,
			"name":"lintel_clay",
			"pbrMetallicRoughness":{
				"baseColorTexture":{
					"index":1
				},
				"metallicFactor":0,
				"roughnessFactor":0.8999999761581421
			}
		},
		{
			"doubleSided":true,
			"name":"lintel_concrete",
			"pbrMetallicRoughness":{
				"baseColorFactor":[
					0.27049779891967773,
					0.2622506618499756,
					0.24228112399578094,
					1
				],
				"metallicFactor":0,
				"roughnessFactor":0.949999988079071
			}
		}
	],
	"meshes":[
		{
			"name":"lintel_stack",
			"primitives":[
				{
					"attributes":{
						"POSITION":0,
						"NORMAL":1,
						"TEXCOORD_0":2
					},
					"indices":3,
					"material":0
				},
				{
					"attributes":{
						"POSITION":4,
						"NORMAL":5,
						"TEXCOORD_0":6
					},
					"indices":7,
					"material":1
				},
				{
					"attributes":{
						"POSITION":8,
						"NORMAL":9,
						"TEXCOORD_0":10
					},
					"indices":11,
					"material":2
				}
			]
		}
	],
	"textures":[
		{
			"sampler":0,
			"source":0
		},
		{
			"sampler":0,
			"source":1
		}
	],
	"images":[
		{
			"bufferView":4,
			"mimeType":"image/png",
			"name":"pallet_wood"
		},
		{
			"bufferView":9,
			"mimeType":"image/png",
			"name":"brick_diffuse"
		}
	],
	"accessors":[
		{
			"bufferView":0,
			"componentType":5126,
			"count":48,
			"max":[
				0.32999998331069946,
				0.05999999865889549,
				0.20999999344348907
			],
			"min":[
				-0.33000001311302185,
				0,
				-0.20999999344348907
			],
			"type":"VEC3"
		},
		{
			"bufferView":1,
			"componentType":5126,
			"count":48,
			"type":"VEC3"
		},
		{
			"bufferView":2,
			"componentType":5126,
			"count":48,
			"type":"VEC2"
		},
		{
			"bufferView":3,
			"componentType":5123,
			"count":72,
			"type":"SCALAR"
		},
		{
			"bufferView":5,
			"componentType":5126,
			"count":144,
			"max":[
				0.4950000047683716,
				0.13099999725818634,
				0.18250001966953278
			],
			"min":[
				-0.4950000047683716,
				0.05999999865889549,
				-0.18250001966953278
			],
			"type":"VEC3"
		},
		{
			"bufferView":6,
			"componentType":5126,
			"count":144,
			"type":"VEC3"
		},
		{
			"bufferView":7,
			"componentType":5126,
			"count":144,
			"type":"VEC2"
		},
		{
			"bufferView":8,
			"componentType":5123,
			"count":252,
			"type":"SCALAR"
		},
		{
			"bufferView":10,
			"componentType":5126,
			"count":72,
			"max":[
				0.4950000047683716,
				0.13099999725818634,
				0.1704999953508377
			],
			"min":[
				-0.4950000047683716,
				0.07199999690055847,
				-0.1704999953508377
			],
			"type":"VEC3"
		},
		{
			"bufferView":11,
			"componentType":5126,
			"count":72,
			"type":"VEC3"
		},
		{
			"bufferView":12,
			"componentType":5126,
			"count":72,
			"type":"VEC2"
		},
		{
			"bufferView":13,
			"componentType":5123,
			"count":108,
			"type":"SCALAR"
		}
	],
	"bufferViews":[
		{
			"buffer":0,
			"byteLength":576,
			"byteOffset":0,
			"target":34962
		},
		{
			"buffer":0,
			"byteLength":576,
			"byteOffset":576,
			"target":34962
		},
		{
			"buffer":0,
			"byteLength":384,
			"byteOffset":1152,
			"target":34962
		},
		{
			"buffer":0,
			"byteLength":144,
			"byteOffset":1536,
			"target":34963
		},
		{
			"buffer":0,
			"byteLength":103466,
			"byteOffset":1680
		},
		{
			"buffer":0,
			"byteLength":1728,
			"byteOffset":105148,
			"target":34962
		},
		{
			"buffer":0,
			"byteLength":1728,
			"byteOffset":106876,
			"target":34962
		},
		{
			"buffer":0,
			"byteLength":1152,
			"byteOffset":108604,
			"target":34962
		},
		{
			"buffer":0,
			"byteLength":504,
			"byteOffset":109756,
			"target":34963
		},
		{
			"buffer":0,
			"byteLength":106262,
			"byteOffset":110260
		},
		{
			"buffer":0,
			"byteLength":864,
			"byteOffset":216524,
			"target":34962
		},
		{
			"buffer":0,
			"byteLength":864,
			"byteOffset":217388,
			"target":34962
		},
		{
			"buffer":0,
			"byteLength":576,
			"byteOffset":218252,
			"target":34962
		},
		{
			"buffer":0,
			"byteLength":216,
			"byteOffset":218828,
			"target":34963
		}
	],
	"samplers":[
		{
			"magFilter":9729,
			"minFilter":9987
		}
	],
	"buffers":[
		{
			"byteLength":219044,
			"uri":"data:application/octet-stream;base64,"
		}
	]
}
