{
	"asset":{
		"generator":"Khronos glTF Blender I/O v5.2.40",
		"version":"2.0"
	},
	"scene":0,
	"scenes":[
		{
			"name":"Scene",
			"nodes":[
				0
			]
		}
	],
	"nodes":[
		{
			"mesh":0,
			"name":"measuring_tape_01"
		}
	],
	"materials":[
		{
			"doubleSided":true,
			"name":"measuring_tape_01",
			"normalTexture":{
				"index":0
			},
			"pbrMetallicRoughness":{
				"baseColorTexture":{
					"index":1
				},
				"metallicRoughnessTexture":{
					"index":2
				}
			}
		}
	],
	"meshes":[
		{
			"name":"Plane.001",
			"primitives":[
				{
					"attributes":{
						"POSITION":0,
						"NORMAL":1,
						"TEXCOORD_0":2
					},
					"indices":3,
					"material":0
				}
			]
		}
	],
	"textures":[
		{
			"sampler":0,
			"source":0
		},
		{
			"sampler":0,
			"source":1
		},
		{
			"sampler":0,
			"source":2
		}
	],
	"images":[
		{
			"bufferView":4,
			"mimeType":"image/jpeg",
			"name":"measuring_tape_01_nor_gl_1k"
		},
		{
			"bufferView":5,
			"mimeType":"image/jpeg",
			"name":"measuring_tape_01_diff_1k"
		},
		{
			"bufferView":6,
			"mimeType":"image/jpeg",
			"name":"measuring_tape_01_arm_1k"
		}
	],
	"accessors":[
		{
			"bufferView":0,
			"componentType":5126,
			"count":2479,
			"max":[
				0.020283132791519165,
				0.07341387122869492,
				0.08470931649208069
			],
			"min":[
				-0.020283132791519165,
				0,
				-0.08470931649208069
			],
			"type":"VEC3"
		},
		{
			"bufferView":1,
			"componentType":5126,
			"count":2479,
			"type":"VEC3"
		},
		{
			"bufferView":2,
			"componentType":5126,
			"count":2479,
			"type":"VEC2"
		},
		{
			"bufferView":3,
			"componentType":5123,
			"count":8604,
			"type":"SCALAR"
		}
	],
	"bufferViews":[
		{
			"buffer":0,
			"byteLength":29748,
			"byteOffset":0,
			"target":34962
		},
		{
			"buffer":0,
			"byteLength":29748,
			"byteOffset":29748,
			"target":34962
		},
		{
			"buffer":0,
			"byteLength":19832,
			"byteOffset":59496,
			"target":34962
		},
		{
			"buffer":0,
			"byteLength":17208,
			"byteOffset":79328,
			"target":34963
		},
		{
			"buffer":0,
			"byteLength":121717,
			"byteOffset":96536
		},
		{
			"buffer":0,
			"byteLength":83801,
			"byteOffset":218256
		},
		{
			"buffer":0,
			"byteLength":143061,
			"byteOffset":302060
		}
	],
	"samplers":[
		{
			"magFilter":9729,
			"minFilter":9987
		}
	],
	"buffers":[
		{
			"byteLength":445124,
			"uri":"data:application/octet-stream;base64,"
		}
	]
}
