{
	"asset":{
		"generator":"Khronos glTF Blender I/O v5.2.40",
		"version":"2.0"
	},
	"scene":0,
	"scenes":[
		{
			"name":"Scene",
			"nodes":[
				0
			]
		}
	],
	"nodes":[
		{
			"mesh":0,
			"name":"mortar_tub"
		}
	],
	"materials":[
		{
			"doubleSided":true,
			"name":"tub_black",
			"pbrMetallicRoughness":{
				"baseColorFactor":[
					0.012983032502233982,
					0.013702083379030228,
					0.015208514407277107,
					1
				],
				"metallicFactor":0,
				"roughnessFactor":0.550000011920929
			}
		},
		{
			"doubleSided":true,
			"name":"mortar",
			"pbrMetallicRoughness":{
				"baseColorTexture":{
					"index":0
				},
				"metallicFactor":0,
				"roughnessFactor":0.949999988079071
			}
		}
	],
	"meshes":[
		{
			"name":"mortar_tub",
			"primitives":[
				{
					"attributes":{
						"POSITION":0,
						"NORMAL":1,
						"TEXCOORD_0":2
					},
					"indices":3,
					"material":0
				},
				{
					"attributes":{
						"POSITION":4,
						"NORMAL":5,
						"TEXCOORD_0":6
					},
					"indices":7,
					"material":1
				}
			]
		}
	],
	"textures":[
		{
			"sampler":0,
			"source":0
		}
	],
	"images":[
		{
			"bufferView":8,
			"mimeType":"image/png",
			"name":"mortar_diffuse"
		}
	],
	"accessors":[
		{
			"bufferView":0,
			"componentType":5126,
			"count":1155,
			"max":[
				0.24699999392032623,
				0.30900001525878906,
				0.22500000894069672
			],
			"min":[
				-0.24699999392032623,
				0,
				-0.22500000894069672
			],
			"type":"VEC3"
		},
		{
			"bufferView":1,
			"componentType":5126,
			"count":1155,
			"type":"VEC3"
		},
		{
			"bufferView":2,
			"componentType":5126,
			"count":1155,
			"type":"VEC2"
		},
		{
			"bufferView":3,
			"componentType":5123,
			"count":5052,
			"type":"SCALAR"
		},
		{
			"bufferView":4,
			"componentType":5126,
			"count":577,
			"max":[
				0.19500000774860382,
				0.25371238589286804,
				0.19499999284744263
			],
			"min":[
				-0.19499999284744263,
				0.23174141347408295,
				-0.19500000774860382
			],
			"type":"VEC3"
		},
		{
			"bufferView":5,
			"componentType":5126,
			"count":577,
			"type":"VEC3"
		},
		{
			"bufferView":6,
			"componentType":5126,
			"count":577,
			"type":"VEC2"
		},
		{
			"bufferView":7,
			"componentType":5123,
			"count":3144,
			"type":"SCALAR"
		}
	],
	"bufferViews":[
		{
			"buffer":0,
			"byteLength":13860,
			"byteOffset":0,
			"target":34962
		},
		{
			"buffer":0,
			"byteLength":13860,
			"byteOffset":13860,
			"target":34962
		},
		{
			"buffer":0,
			"byteLength":9240,
			"byteOffset":27720,
			"target":34962
		},
		{
			"buffer":0,
			"byteLength":10104,
			"byteOffset":36960,
			"target":34963
		},
		{
			"buffer":0,
			"byteLength":6924,
			"byteOffset":47064,
			"target":34962
		},
		{
			"buffer":0,
			"byteLength":6924,
			"byteOffset":53988,
			"target":34962
		},
		{
			"buffer":0,
			"byteLength":4616,
			"byteOffset":60912,
			"target":34962
		},
		{
			"buffer":0,
			"byteLength":6288,
			"byteOffset":65528,
			"target":34963
		},
		{
			"buffer":0,
			"byteLength":112352,
			"byteOffset":71816
		}
	],
	"samplers":[
		{
			"magFilter":9729,
			"minFilter":9987
		}
	],
	"buffers":[
		{
			"byteLength":184168,
			"uri":"data:application/octet-stream;base64,"
		}
	]
}
