{
	"asset":{
		"generator":"Khronos glTF Blender I/O v5.2.40",
		"version":"2.0"
	},
	"scene":0,
	"scenes":[
		{
			"name":"Scene",
			"nodes":[
				0
			]
		}
	],
	"nodes":[
		{
			"mesh":0,
			"name":"pallet_euro"
		}
	],
	"materials":[
		{
			"doubleSided":true,
			"name":"pallet_wood",
			"pbrMetallicRoughness":{
				"baseColorTexture":{
					"index":0
				},
				"metallicFactor":0,
				"roughnessFactor":0.8500000238418579
			}
		}
	],
	"meshes":[
		{
			"name":"pallet_euro",
			"primitives":[
				{
					"attributes":{
						"POSITION":0,
						"NORMAL":1,
						"TEXCOORD_0":2
					},
					"indices":3,
					"material":0
				}
			]
		}
	],
	"textures":[
		{
			"sampler":0,
			"source":0
		}
	],
	"images":[
		{
			"bufferView":4,
			"mimeType":"image/png",
			"name":"pallet_wood"
		}
	],
	"accessors":[
		{
			"bufferView":0,
			"componentType":5126,
			"count":4320,
			"max":[
				0.6000000238418579,
				0.14399999380111694,
				0.4000000059604645
			],
			"min":[
				-0.6000000238418579,
				0,
				-0.40000003576278687
			],
			"type":"VEC3"
		},
		{
			"bufferView":1,
			"componentType":5126,
			"count":4320,
			"type":"VEC3"
		},
		{
			"bufferView":2,
			"componentType":5126,
			"count":4320,
			"type":"VEC2"
		},
		{
			"bufferView":3,
			"componentType":5123,
			"count":6480,
			"type":"SCALAR"
		}
	],
	"bufferViews":[
		{
			"buffer":0,
			"byteLength":51840,
			"byteOffset":0,
			"target":34962
		},
		{
			"buffer":0,
			"byteLength":51840,
			"byteOffset":51840,
			"target":34962
		},
		{
			"buffer":0,
			"byteLength":34560,
			"byteOffset":103680,
			"target":34962
		},
		{
			"buffer":0,
			"byteLength":12960,
			"byteOffset":138240,
			"target":34963
		},
		{
			"buffer":0,
			"byteLength":103466,
			"byteOffset":151200
		}
	],
	"samplers":[
		{
			"magFilter":9729,
			"minFilter":9987
		}
	],
	"buffers":[
		{
			"byteLength":254668,
			"uri":"data:application/octet-stream;base64,"
		}
	]
}
