{
	"asset":{
		"generator":"Khronos glTF Blender I/O v5.2.40",
		"version":"2.0"
	},
	"scene":0,
	"scenes":[
		{
			"name":"Scene",
			"nodes":[
				0,
				1
			]
		}
	],
	"nodes":[
		{
			"mesh":0,
			"name":"RobotArm"
		},
		{
			"mesh":1,
			"name":"RobotBase"
		}
	],
	"materials":[
		{
			"doubleSided":true,
			"name":"robot_dark",
			"pbrMetallicRoughness":{
				"baseColorFactor":[
					0.03310476616024971,
					0.039546236395835876,
					0.04666508734226227,
					1
				],
				"metallicFactor":0,
				"roughnessFactor":0.6000000238418579
			}
		},
		{
			"doubleSided":true,
			"name":"robot_yellow",
			"pbrMetallicRoughness":{
				"baseColorFactor":[
					0.8879231214523315,
					0.47353148460388184,
					0.0015176349552348256,
					1
				],
				"metallicFactor":0.10000000149011612,
				"roughnessFactor":0.44999998807907104
			}
		},
		{
			"doubleSided":true,
			"name":"robot_steel",
			"pbrMetallicRoughness":{
				"baseColorFactor":[
					0.20507873594760895,
					0.23839756846427917,
					0.2622506618499756,
					1
				],
				"metallicFactor":0.8999999761581421,
				"roughnessFactor":0.4000000059604645
			}
		},
		{
			"doubleSided":true,
			"name":"beacon",
			"pbrMetallicRoughness":{
				"baseColorFactor":[
					1,
					0.1946178376674652,
					0.01032982300966978,
					1
				],
				"metallicFactor":0,
				"roughnessFactor":0.30000001192092896
			}
		},
		{
			"doubleSided":true,
			"name":"track_rubber",
			"pbrMetallicRoughness":{
				"baseColorFactor":[
					0.019382361322641373,
					0.022173885256052017,
					0.026241222396492958,
					1
				],
				"metallicFactor":0,
				"roughnessFactor":0.8999999761581421
			}
		},
		{
			"doubleSided":true,
			"name":"stripes",
			"pbrMetallicRoughness":{
				"baseColorTexture":{
					"index":0
				},
				"metallicFactor":0,
				"roughnessFactor":0.5
			}
		}
	],
	"meshes":[
		{
			"name":"RobotArm",
			"primitives":[
				{
					"attributes":{
						"POSITION":0,
						"NORMAL":1,
						"TEXCOORD_0":2
					},
					"indices":3,
					"material":0
				},
				{
					"attributes":{
						"POSITION":4,
						"NORMAL":5,
						"TEXCOORD_0":6
					},
					"indices":7,
					"material":1
				},
				{
					"attributes":{
						"POSITION":8,
						"NORMAL":9,
						"TEXCOORD_0":10
					},
					"indices":11,
					"material":2
				},
				{
					"attributes":{
						"POSITION":12,
						"NORMAL":13,
						"TEXCOORD_0":14
					},
					"indices":15,
					"material":3
				}
			]
		},
		{
			"name":"RobotBase",
			"primitives":[
				{
					"attributes":{
						"POSITION":16,
						"NORMAL":17,
						"TEXCOORD_0":18
					},
					"indices":19,
					"material":4
				},
				{
					"attributes":{
						"POSITION":20,
						"NORMAL":21,
						"TEXCOORD_0":22
					},
					"indices":23,
					"material":0
				},
				{
					"attributes":{
						"POSITION":24,
						"NORMAL":25,
						"TEXCOORD_0":26
					},
					"indices":27,
					"material":1
				},
				{
					"attributes":{
						"POSITION":28,
						"NORMAL":29,
						"TEXCOORD_0":30
					},
					"indices":31,
					"material":5
				}
			]
		}
	],
	"textures":[
		{
			"sampler":0,
			"source":0
		}
	],
	"images":[
		{
			"bufferView":32,
			"mimeType":"image/png",
			"name":"hazard_stripes"
		}
	],
	"accessors":[
		{
			"bufferView":0,
			"componentType":5126,
			"count":576,
			"max":[
				0.18000000715255737,
				1.3399999141693115,
				0.3100000023841858
			],
			"min":[
				-0.18000000715255737,
				0.4999999701976776,
				-1.065000057220459
			],
			"type":"VEC3"
		},
		{
			"bufferView":1,
			"componentType":5126,
			"count":576,
			"type":"VEC3"
		},
		{
			"bufferView":2,
			"componentType":5126,
			"count":576,
			"type":"VEC2"
		},
		{
			"bufferView":3,
			"componentType":5123,
			"count":924,
			"type":"SCALAR"
		},
		{
			"bufferView":4,
			"componentType":5126,
			"count":432,
			"max":[
				0.05999999865889549,
				1.3050000667572021,
				0.12000000476837158
			],
			"min":[
				-0.05999999865889549,
				0.5600000023841858,
				-1
			],
			"type":"VEC3"
		},
		{
			"bufferView":5,
			"componentType":5126,
			"count":432,
			"type":"VEC3"
		},
		{
			"bufferView":6,
			"componentType":5126,
			"count":432,
			"type":"VEC2"
		},
		{
			"bufferView":7,
			"componentType":5123,
			"count":648,
			"type":"SCALAR"
		},
		{
			"bufferView":8,
			"componentType":5126,
			"count":108,
			"max":[
				0.14000000059604645,
				1.2200000286102295,
				-0.9350000023841858
			],
			"min":[
				-0.13999998569488525,
				0.875,
				-1.065000057220459
			],
			"type":"VEC3"
		},
		{
			"bufferView":9,
			"componentType":5126,
			"count":108,
			"type":"VEC3"
		},
		{
			"bufferView":10,
			"componentType":5126,
			"count":108,
			"type":"VEC2"
		},
		{
			"bufferView":11,
			"componentType":5123,
			"count":180,
			"type":"SCALAR"
		},
		{
			"bufferView":12,
			"componentType":5126,
			"count":96,
			"max":[
				0.03500000014901161,
				1.3599998950958252,
				0.03500000014901161
			],
			"min":[
				-0.03500000014901161,
				1.2799999713897705,
				-0.03500000014901161
			],
			"type":"VEC3"
		},
		{
			"bufferView":13,
			"componentType":5126,
			"count":96,
			"type":"VEC3"
		},
		{
			"bufferView":14,
			"componentType":5126,
			"count":96,
			"type":"VEC2"
		},
		{
			"bufferView":15,
			"componentType":5123,
			"count":180,
			"type":"SCALAR"
		},
		{
			"bufferView":16,
			"componentType":5126,
			"count":432,
			"max":[
				0.39000004529953003,
				0.2199999988079071,
				0.44999998807907104
			],
			"min":[
				-0.39000001549720764,
				0,
				-0.44999998807907104
			],
			"type":"VEC3"
		},
		{
			"bufferView":17,
			"componentType":5126,
			"count":432,
			"type":"VEC3"
		},
		{
			"bufferView":18,
			"componentType":5126,
			"count":432,
			"type":"VEC2"
		},
		{
			"bufferView":19,
			"componentType":5123,
			"count":648,
			"type":"SCALAR"
		},
		{
			"bufferView":20,
			"componentType":5126,
			"count":384,
			"max":[
				0.39500004053115845,
				0.19499999284744263,
				0.4150000214576721
			],
			"min":[
				-0.39500001072883606,
				0.02499999850988388,
				-0.4150000214576721
			],
			"type":"VEC3"
		},
		{
			"bufferView":21,
			"componentType":5126,
			"count":384,
			"type":"VEC3"
		},
		{
			"bufferView":22,
			"componentType":5126,
			"count":384,
			"type":"VEC2"
		},
		{
			"bufferView":23,
			"componentType":5123,
			"count":720,
			"type":"SCALAR"
		},
		{
			"bufferView":24,
			"componentType":5126,
			"count":216,
			"max":[
				0.25,
				0.5,
				0.36000001430511475
			],
			"min":[
				-0.25,
				0.23999999463558197,
				-0.36000001430511475
			],
			"type":"VEC3"
		},
		{
			"bufferView":25,
			"componentType":5126,
			"count":216,
			"type":"VEC3"
		},
		{
			"bufferView":26,
			"componentType":5126,
			"count":216,
			"type":"VEC2"
		},
		{
			"bufferView":27,
			"componentType":5123,
			"count":324,
			"type":"SCALAR"
		},
		{
			"bufferView":28,
			"componentType":5126,
			"count":24,
			"max":[
				0.25,
				0.38999998569488525,
				-0.36000001430511475
			],
			"min":[
				-0.25,
				0.2900000214576721,
				-0.3799999952316284
			],
			"type":"VEC3"
		},
		{
			"bufferView":29,
			"componentType":5126,
			"count":24,
			"type":"VEC3"
		},
		{
			"bufferView":30,
			"componentType":5126,
			"count":24,
			"type":"VEC2"
		},
		{
			"bufferView":31,
			"componentType":5123,
			"count":36,
			"type":"SCALAR"
		}
	],
	"bufferViews":[
		{
			"buffer":0,
			"byteLength":6912,
			"byteOffset":0,
			"target":34962
		},
		{
			"buffer":0,
			"byteLength":6912,
			"byteOffset":6912,
			"target":34962
		},
		{
			"buffer":0,
			"byteLength":4608,
			"byteOffset":13824,
			"target":34962
		},
		{
			"buffer":0,
			"byteLength":1848,
			"byteOffset":18432,
			"target":34963
		},
		{
			"buffer":0,
			"byteLength":5184,
			"byteOffset":20280,
			"target":34962
		},
		{
			"buffer":0,
			"byteLength":5184,
			"byteOffset":25464,
			"target":34962
		},
		{
			"buffer":0,
			"byteLength":3456,
			"byteOffset":30648,
			"target":34962
		},
		{
			"buffer":0,
			"byteLength":1296,
			"byteOffset":34104,
			"target":34963
		},
		{
			"buffer":0,
			"byteLength":1296,
			"byteOffset":35400,
			"target":34962
		},
		{
			"buffer":0,
			"byteLength":1296,
			"byteOffset":36696,
			"target":34962
		},
		{
			"buffer":0,
			"byteLength":864,
			"byteOffset":37992,
			"target":34962
		},
		{
			"buffer":0,
			"byteLength":360,
			"byteOffset":38856,
			"target":34963
		},
		{
			"buffer":0,
			"byteLength":1152,
			"byteOffset":39216,
			"target":34962
		},
		{
			"buffer":0,
			"byteLength":1152,
			"byteOffset":40368,
			"target":34962
		},
		{
			"buffer":0,
			"byteLength":768,
			"byteOffset":41520,
			"target":34962
		},
		{
			"buffer":0,
			"byteLength":360,
			"byteOffset":42288,
			"target":34963
		},
		{
			"buffer":0,
			"byteLength":5184,
			"byteOffset":42648,
			"target":34962
		},
		{
			"buffer":0,
			"byteLength":5184,
			"byteOffset":47832,
			"target":34962
		},
		{
			"buffer":0,
			"byteLength":3456,
			"byteOffset":53016,
			"target":34962
		},
		{
			"buffer":0,
			"byteLength":1296,
			"byteOffset":56472,
			"target":34963
		},
		{
			"buffer":0,
			"byteLength":4608,
			"byteOffset":57768,
			"target":34962
		},
		{
			"buffer":0,
			"byteLength":4608,
			"byteOffset":62376,
			"target":34962
		},
		{
			"buffer":0,
			"byteLength":3072,
			"byteOffset":66984,
			"target":34962
		},
		{
			"buffer":0,
			"byteLength":1440,
			"byteOffset":70056,
			"target":34963
		},
		{
			"buffer":0,
			"byteLength":2592,
			"byteOffset":71496,
			"target":34962
		},
		{
			"buffer":0,
			"byteLength":2592,
			"byteOffset":74088,
			"target":34962
		},
		{
			"buffer":0,
			"byteLength":1728,
			"byteOffset":76680,
			"target":34962
		},
		{
			"buffer":0,
			"byteLength":648,
			"byteOffset":78408,
			"target":34963
		},
		{
			"buffer":0,
			"byteLength":288,
			"byteOffset":79056,
			"target":34962
		},
		{
			"buffer":0,
			"byteLength":288,
			"byteOffset":79344,
			"target":34962
		},
		{
			"buffer":0,
			"byteLength":192,
			"byteOffset":79632,
			"target":34962
		},
		{
			"buffer":0,
			"byteLength":72,
			"byteOffset":79824,
			"target":34963
		},
		{
			"buffer":0,
			"byteLength":1435,
			"byteOffset":79896
		}
	],
	"samplers":[
		{
			"magFilter":9729,
			"minFilter":9987
		}
	],
	"buffers":[
		{
			"byteLength":81332,
			"uri":"data:application/octet-stream;base64,"
		}
	]
}
