{
	"asset":{
		"generator":"Khronos glTF Blender I/O v5.2.40",
		"version":"2.0"
	},
	"scene":0,
	"scenes":[
		{
			"name":"Scene",
			"nodes":[
				0
			]
		}
	],
	"nodes":[
		{
			"mesh":0,
			"name":"spirit_level"
		}
	],
	"materials":[
		{
			"doubleSided":true,
			"name":"level_yellow",
			"pbrMetallicRoughness":{
				"baseColorFactor":[
					0.8069522380828857,
					0.44520118832588196,
					0.01032982300966978,
					1
				],
				"metallicFactor":0.20000000298023224,
				"roughnessFactor":0.44999998807907104
			}
		},
		{
			"doubleSided":true,
			"name":"level_caps",
			"pbrMetallicRoughness":{
				"baseColorFactor":[
					0.012983032502233982,
					0.01599629409611225,
					0.019382361322641373,
					1
				],
				"metallicFactor":0,
				"roughnessFactor":0.6000000238418579
			}
		},
		{
			"doubleSided":true,
			"name":"vial",
			"pbrMetallicRoughness":{
				"baseColorFactor":[
					0.3324515223503113,
					0.6938717365264893,
					0.1441284716129303,
					1
				],
				"metallicFactor":0,
				"roughnessFactor":0.10000000149011612
			}
		}
	],
	"meshes":[
		{
			"name":"spirit_level",
			"primitives":[
				{
					"attributes":{
						"POSITION":0,
						"NORMAL":1,
						"TEXCOORD_0":2
					},
					"indices":3,
					"material":0
				},
				{
					"attributes":{
						"POSITION":4,
						"NORMAL":5,
						"TEXCOORD_0":6
					},
					"indices":7,
					"material":1
				},
				{
					"attributes":{
						"POSITION":8,
						"NORMAL":9,
						"TEXCOORD_0":10
					},
					"indices":11,
					"material":2
				}
			]
		}
	],
	"accessors":[
		{
			"bufferView":0,
			"componentType":5126,
			"count":216,
			"max":[
				0.30000001192092896,
				0.0560000017285347,
				0.012500000186264515
			],
			"min":[
				-0.30000001192092896,
				0,
				-0.012500000186264515
			],
			"type":"VEC3"
		},
		{
			"bufferView":1,
			"componentType":5126,
			"count":216,
			"type":"VEC3"
		},
		{
			"bufferView":2,
			"componentType":5126,
			"count":216,
			"type":"VEC2"
		},
		{
			"bufferView":3,
			"componentType":5123,
			"count":324,
			"type":"SCALAR"
		},
		{
			"bufferView":4,
			"componentType":5126,
			"count":432,
			"max":[
				0.30000001192092896,
				0.057999998331069946,
				0.013500000350177288
			],
			"min":[
				-0.30000001192092896,
				0,
				-0.013500000350177288
			],
			"type":"VEC3"
		},
		{
			"bufferView":5,
			"componentType":5126,
			"count":432,
			"type":"VEC3"
		},
		{
			"bufferView":6,
			"componentType":5126,
			"count":432,
			"type":"VEC2"
		},
		{
			"bufferView":7,
			"componentType":5123,
			"count":648,
			"type":"SCALAR"
		},
		{
			"bufferView":8,
			"componentType":5126,
			"count":48,
			"max":[
				0.2070000022649765,
				0.05950000137090683,
				0.013500000350177288
			],
			"min":[
				-0.02500000037252903,
				0.010999999940395355,
				-0.013500000350177288
			],
			"type":"VEC3"
		},
		{
			"bufferView":9,
			"componentType":5126,
			"count":48,
			"type":"VEC3"
		},
		{
			"bufferView":10,
			"componentType":5126,
			"count":48,
			"type":"VEC2"
		},
		{
			"bufferView":11,
			"componentType":5123,
			"count":72,
			"type":"SCALAR"
		}
	],
	"bufferViews":[
		{
			"buffer":0,
			"byteLength":2592,
			"byteOffset":0,
			"target":34962
		},
		{
			"buffer":0,
			"byteLength":2592,
			"byteOffset":2592,
			"target":34962
		},
		{
			"buffer":0,
			"byteLength":1728,
			"byteOffset":5184,
			"target":34962
		},
		{
			"buffer":0,
			"byteLength":648,
			"byteOffset":6912,
			"target":34963
		},
		{
			"buffer":0,
			"byteLength":5184,
			"byteOffset":7560,
			"target":34962
		},
		{
			"buffer":0,
			"byteLength":5184,
			"byteOffset":12744,
			"target":34962
		},
		{
			"buffer":0,
			"byteLength":3456,
			"byteOffset":17928,
			"target":34962
		},
		{
			"buffer":0,
			"byteLength":1296,
			"byteOffset":21384,
			"target":34963
		},
		{
			"buffer":0,
			"byteLength":576,
			"byteOffset":22680,
			"target":34962
		},
		{
			"buffer":0,
			"byteLength":576,
			"byteOffset":23256,
			"target":34962
		},
		{
			"buffer":0,
			"byteLength":384,
			"byteOffset":23832,
			"target":34962
		},
		{
			"buffer":0,
			"byteLength":144,
			"byteOffset":24216,
			"target":34963
		}
	],
	"buffers":[
		{
			"byteLength":24360,
			"uri":"data:application/octet-stream;base64,"
		}
	]
}
