{
	"asset":{
		"generator":"Khronos glTF Blender I/O v5.2.40",
		"version":"2.0"
	},
	"scene":0,
	"scenes":[
		{
			"name":"Scene",
			"nodes":[
				0
			]
		}
	],
	"nodes":[
		{
			"mesh":0,
			"name":"trowel"
		}
	],
	"materials":[
		{
			"doubleSided":true,
			"name":"steel",
			"pbrMetallicRoughness":{
				"baseColorFactor":[
					0.48514994978904724,
					0.5271151065826416,
					0.5520114302635193,
					1
				],
				"roughnessFactor":0.3499999940395355
			}
		},
		{
			"doubleSided":true,
			"name":"handle_wood",
			"pbrMetallicRoughness":{
				"baseColorFactor":[
					0.3277781009674072,
					0.1441284716129303,
					0.045186202973127365,
					1
				],
				"metallicFactor":0,
				"roughnessFactor":0.699999988079071
			}
		}
	],
	"meshes":[
		{
			"name":"trowel",
			"primitives":[
				{
					"attributes":{
						"POSITION":0,
						"NORMAL":1,
						"TEXCOORD_0":2
					},
					"indices":3,
					"material":0
				},
				{
					"attributes":{
						"POSITION":4,
						"NORMAL":5,
						"TEXCOORD_0":6
					},
					"indices":7,
					"material":1
				}
			]
		}
	],
	"accessors":[
		{
			"bufferView":0,
			"componentType":5126,
			"count":136,
			"max":[
				0.3700000047683716,
				0.003873772919178009,
				0.06599999964237213
			],
			"min":[
				0.05872524529695511,
				-0.05374999716877937,
				-0.06599999964237213
			],
			"type":"VEC3"
		},
		{
			"bufferView":1,
			"componentType":5126,
			"count":136,
			"type":"VEC3"
		},
		{
			"bufferView":2,
			"componentType":5126,
			"count":136,
			"type":"VEC2"
		},
		{
			"bufferView":3,
			"componentType":5123,
			"count":288,
			"type":"SCALAR"
		},
		{
			"bufferView":4,
			"componentType":5126,
			"count":66,
			"max":[
				0.06064527854323387,
				0.017986562103033066,
				0.015500001609325409
			],
			"min":[
				-0.06064528226852417,
				-0.017986558377742767,
				-0.015500001609325409
			],
			"type":"VEC3"
		},
		{
			"bufferView":5,
			"componentType":5126,
			"count":66,
			"type":"VEC3"
		},
		{
			"bufferView":6,
			"componentType":5126,
			"count":66,
			"type":"VEC2"
		},
		{
			"bufferView":7,
			"componentType":5123,
			"count":180,
			"type":"SCALAR"
		}
	],
	"bufferViews":[
		{
			"buffer":0,
			"byteLength":1632,
			"byteOffset":0,
			"target":34962
		},
		{
			"buffer":0,
			"byteLength":1632,
			"byteOffset":1632,
			"target":34962
		},
		{
			"buffer":0,
			"byteLength":1088,
			"byteOffset":3264,
			"target":34962
		},
		{
			"buffer":0,
			"byteLength":576,
			"byteOffset":4352,
			"target":34963
		},
		{
			"buffer":0,
			"byteLength":792,
			"byteOffset":4928,
			"target":34962
		},
		{
			"buffer":0,
			"byteLength":792,
			"byteOffset":5720,
			"target":34962
		},
		{
			"buffer":0,
			"byteLength":528,
			"byteOffset":6512,
			"target":34962
		},
		{
			"buffer":0,
			"byteLength":360,
			"byteOffset":7040,
			"target":34963
		}
	],
	"buffers":[
		{
			"byteLength":7400,
			"uri":"data:application/octet-stream;base64,"
		}
	]
}
