{
	"asset":{
		"generator":"Khronos glTF Blender I/O v5.2.40",
		"version":"2.0"
	},
	"scene":0,
	"scenes":[
		{
			"name":"Scene",
			"nodes":[
				0,
				1
			]
		}
	],
	"nodes":[
		{
			"mesh":0,
			"name":"window_frame"
		},
		{
			"mesh":1,
			"name":"window_glass"
		}
	],
	"materials":[
		{
			"doubleSided":true,
			"name":"window_timber",
			"pbrMetallicRoughness":{
				"baseColorFactor":[
					0.10224173218011856,
					0.039546236395835876,
					0.014443843625485897,
					1
				],
				"metallicFactor":0,
				"roughnessFactor":0.5
			}
		},
		{
			"alphaMode":"BLEND",
			"doubleSided":true,
			"name":"glass",
			"pbrMetallicRoughness":{
				"baseColorFactor":[
					0.3967552185058594,
					0.5647115111351013,
					0.6444796919822693,
					0.30000001192092896
				],
				"metallicFactor":0,
				"roughnessFactor":0.05000000074505806
			}
		}
	],
	"meshes":[
		{
			"name":"window_frame",
			"primitives":[
				{
					"attributes":{
						"POSITION":0,
						"NORMAL":1,
						"TEXCOORD_0":2
					},
					"indices":3,
					"material":0
				}
			]
		},
		{
			"name":"window_glass",
			"primitives":[
				{
					"attributes":{
						"POSITION":4,
						"NORMAL":5,
						"TEXCOORD_0":6
					},
					"indices":7,
					"material":1
				}
			]
		}
	],
	"accessors":[
		{
			"bufferView":0,
			"componentType":5126,
			"count":960,
			"max":[
				0.25,
				0.49000000953674316,
				0.03500000014901161
			],
			"min":[
				-0.25,
				0,
				-0.03500000014901161
			],
			"type":"VEC3"
		},
		{
			"bufferView":1,
			"componentType":5126,
			"count":960,
			"type":"VEC3"
		},
		{
			"bufferView":2,
			"componentType":5126,
			"count":960,
			"type":"VEC2"
		},
		{
			"bufferView":3,
			"componentType":5123,
			"count":1440,
			"type":"SCALAR"
		},
		{
			"bufferView":4,
			"componentType":5126,
			"count":24,
			"max":[
				0.17499999701976776,
				0.4150000214576721,
				0.013000000268220901
			],
			"min":[
				-0.17499999701976776,
				0.07500000298023224,
				0.00699999975040555
			],
			"type":"VEC3"
		},
		{
			"bufferView":5,
			"componentType":5126,
			"count":24,
			"type":"VEC3"
		},
		{
			"bufferView":6,
			"componentType":5126,
			"count":24,
			"type":"VEC2"
		},
		{
			"bufferView":7,
			"componentType":5123,
			"count":36,
			"type":"SCALAR"
		}
	],
	"bufferViews":[
		{
			"buffer":0,
			"byteLength":11520,
			"byteOffset":0,
			"target":34962
		},
		{
			"buffer":0,
			"byteLength":11520,
			"byteOffset":11520,
			"target":34962
		},
		{
			"buffer":0,
			"byteLength":7680,
			"byteOffset":23040,
			"target":34962
		},
		{
			"buffer":0,
			"byteLength":2880,
			"byteOffset":30720,
			"target":34963
		},
		{
			"buffer":0,
			"byteLength":288,
			"byteOffset":33600,
			"target":34962
		},
		{
			"buffer":0,
			"byteLength":288,
			"byteOffset":33888,
			"target":34962
		},
		{
			"buffer":0,
			"byteLength":192,
			"byteOffset":34176,
			"target":34962
		},
		{
			"buffer":0,
			"byteLength":72,
			"byteOffset":34368,
			"target":34963
		}
	],
	"buffers":[
		{
			"byteLength":34440,
			"uri":"data:application/octet-stream;base64,"
		}
	]
}
